<?xml version="1.0" encoding="UTF-8" standalone="no"?>
<!DOCTYPE svg PUBLIC "-//W3C//DTD SVG 1.1//EN" "http://www.w3.org/Graphics/SVG/1.1/DTD/svg11.dtd">
<svg width="100%" height="100%" viewBox="0 0 550 460" version="1.1" xmlns="http://www.w3.org/2000/svg" xmlns:xlink="http://www.w3.org/1999/xlink" xml:space="preserve" xmlns:serif="http://www.serif.com/" style="fill-rule:evenodd;clip-rule:evenodd;stroke-linejoin:round;stroke-miterlimit:1.5;">
    <g transform="matrix(1.99026,0,0,1.99026,-521.104,-282.462)">
        <g transform="matrix(1,0,0,1,204.912,120.917)">
            <path d="M283.64,190.828L305.608,228.878M202.709,190.68L224.821,228.979M121.896,190.735L144.083,229.165M243.26,120.887L265.139,158.783M162.404,120.869L184.514,159.164M202.837,50.873L224.629,88.618" style="fill:none;stroke:black;stroke-width:3.01px;"/>
        </g>
        <g transform="matrix(1,0,0,1,204.909,121.172)">
            <g transform="matrix(0.502447,-0,-0,0.502447,56.9181,20.7502)">
                <path d="M141.843,455.28L155.343,446.28L141.843,437.28" style="fill:none;stroke:black;stroke-width:6px;stroke-linejoin:miter;stroke-miterlimit:10;"/>
                <path d="M155.343,446.28L67.021,446.28" style="fill:none;stroke:black;stroke-width:6px;"/>
            </g>
        </g>
        <g transform="matrix(1,0,0,1,204.909,121.172)">
            <path d="M81.504,229.163L103.562,190.957" style="fill:none;stroke:black;stroke-width:3.01px;"/>
        </g>
        <g transform="matrix(1,0,0,1,204.909,121.172)">
            <g transform="matrix(0.502447,-0,-0,0.502447,56.9181,20.7502)">
                <path d="M302.825,455.28L316.325,446.28L302.825,437.28" style="fill:none;stroke:black;stroke-width:6px;stroke-linejoin:miter;stroke-miterlimit:10;"/>
                <path d="M316.325,446.28L228.799,446.28" style="fill:none;stroke:black;stroke-width:6px;"/>
            </g>
        </g>
        <g transform="matrix(1,0,0,1,204.909,121.172)">
            <path d="M162.475,228.944L184.514,190.772" style="fill:none;stroke:black;stroke-width:3.01px;"/>
        </g>
        <g transform="matrix(1,0,0,1,204.909,121.172)">
            <g transform="matrix(0.502447,-0,-0,0.502447,56.9181,20.7502)">
                <path d="M463.235,455.28L476.735,446.28L463.235,437.28" style="fill:none;stroke:black;stroke-width:6px;stroke-linejoin:miter;stroke-miterlimit:10;"/>
                <path d="M476.735,446.28L389.781,446.28" style="fill:none;stroke:black;stroke-width:6px;"/>
            </g>
        </g>
        <g transform="matrix(1,0,0,1,204.909,121.172)">
            <path d="M243.384,228.833L265.295,190.883" style="fill:none;stroke:black;stroke-width:3.01px;"/>
        </g>
        <g transform="matrix(1,0,0,1,204.909,121.172)">
            <g transform="matrix(0.502447,-0,-0,0.502447,56.9181,20.7502)">
                <path d="M221.925,315.934L235.425,306.934L221.925,297.934" style="fill:none;stroke:black;stroke-width:6px;stroke-linejoin:miter;stroke-miterlimit:10;"/>
                <path d="M235.425,306.934L147.314,306.934" style="fill:none;stroke:black;stroke-width:6px;"/>
            </g>
        </g>
        <g transform="matrix(1,0,0,1,204.909,121.172)">
            <path d="M121.991,159.037L144.083,120.772" style="fill:none;stroke:black;stroke-width:3.01px;"/>
        </g>
        <g transform="matrix(1,0,0,1,204.909,121.172)">
            <g transform="matrix(0.502447,-0,-0,0.502447,56.9181,20.7502)">
                <path d="M382.784,315.934L396.284,306.934L382.784,297.934" style="fill:none;stroke:black;stroke-width:6px;stroke-linejoin:miter;stroke-miterlimit:10;"/>
                <path d="M396.284,306.934L308.837,306.934" style="fill:none;stroke:black;stroke-width:6px;"/>
            </g>
        </g>
        <g transform="matrix(1,0,0,1,204.909,121.172)">
            <path d="M202.792,159.114L224.99,120.666" style="fill:none;stroke:black;stroke-width:3.01px;"/>
        </g>
        <g transform="matrix(1,0,0,1,204.909,121.172)">
            <g transform="matrix(0.502447,-0,-0,0.502447,56.9181,20.7502)">
                <path d="M302.825,176.588L316.325,167.588L302.825,158.588" style="fill:none;stroke:black;stroke-width:6px;stroke-linejoin:miter;stroke-miterlimit:10;"/>
                <path d="M316.325,167.588L228.799,167.588" style="fill:none;stroke:black;stroke-width:6px;"/>
            </g>
        </g>
        <g transform="matrix(-2.17785,4.84338e-16,2.14599e-15,1,818.295,145.406)">
            <g transform="matrix(-0.230708,1.11741e-16,4.95096e-16,0.502447,255.512,-3.48379)">
                <path d="M139.032,261.878L129.512,275.016L145.301,278.752" style="fill:none;stroke:black;stroke-opacity:0.5;stroke-width:6px;stroke-linejoin:miter;stroke-miterlimit:10;"/>
                <path d="M129.512,275.016L334.506,198.859" style="fill:none;stroke:black;stroke-opacity:0.5;stroke-width:6px;"/>
            </g>
        </g>
        <g transform="matrix(-3.57625,-0.0356348,-0.394227,1.03864,1146.43,218.473)">
            <g transform="matrix(-0.139966,-0.00480212,-0.0531257,0.481932,254.518,-64.9708)">
                <path d="M60.332,403.25L48.932,414.795L63.974,420.878" style="fill:none;stroke:black;stroke-opacity:0.5;stroke-width:6px;stroke-linejoin:miter;stroke-miterlimit:10;"/>
                <path d="M48.932,414.795L415.576,339.049" style="fill:none;stroke:black;stroke-opacity:0.5;stroke-width:6px;"/>
            </g>
        </g>
        <g transform="matrix(1,0,0,1,204.909,121.172)">
            <g transform="matrix(0.502447,-0,-0,0.502447,56.9181,20.7502)">
                <path d="M209.304,119.022L210.349,135.213L224.893,128.022" style="fill:none;stroke:black;stroke-width:6px;stroke-linejoin:miter;stroke-miterlimit:10;"/>
                <path d="M210.349,135.213L253.949,59.696" style="fill:none;stroke:black;stroke-width:6px;"/>
            </g>
        </g>
    </g>
    <g transform="matrix(1,0,0,1,-125,4.39879)">
        <g transform="matrix(1.99026,0,0,1.99026,-19.934,-53.761)">
            <text x="175.184px" y="45.096px" style="font-family:'SpecialElite-Regular', 'Special Elite';font-size:24.632px;">Start</text>
        </g>
        <g transform="matrix(1.99026,0,0,1.99026,-44.8646,80.2868)">
            <text x="175.184px" y="45.096px" style="font-family:'SpecialElite-Regular', 'Special Elite';font-size:24.632px;">n</text>
        </g>
        <g transform="matrix(1.99026,0,0,1.99026,34.6088,219.633)">
            <text x="175.184px" y="45.096px" style="font-family:'SpecialElite-Regular', 'Special Elite';font-size:24.632px;">n</text>
        </g>
        <g transform="matrix(1.99026,0,0,1.99026,-46.602,359.566)">
            <text x="175.184px" y="45.096px" style="font-family:'SpecialElite-Regular', 'Special Elite';font-size:24.632px;">n</text>
        </g>
        <g transform="matrix(1.99026,0,0,1.99026,114.607,359.566)">
            <text x="175.184px" y="45.096px" style="font-family:'SpecialElite-Regular', 'Special Elite';font-size:24.632px;">n</text>
        </g>
        <g transform="matrix(1.99026,0,0,1.99026,273.129,359.566)">
            <text x="175.184px" y="45.096px" style="font-family:'SpecialElite-Regular', 'Special Elite';font-size:24.632px;">n</text>
        </g>
        <g transform="matrix(1.99026,0,0,1.99026,-206.693,359.566)">
            <text x="175.184px" y="45.096px" style="font-family:'SpecialElite-Regular', 'Special Elite';font-size:24.632px;">n</text>
        </g>
        <g transform="matrix(1.99026,0,0,1.99026,191.841,219.633)">
            <text x="175.184px" y="45.096px" style="font-family:'SpecialElite-Regular', 'Special Elite';font-size:24.632px;">n</text>
        </g>
        <g transform="matrix(1.99026,0,0,1.99026,-122.709,219.633)">
            <text x="175.184px" y="45.096px" style="font-family:'SpecialElite-Regular', 'Special Elite';font-size:24.632px;">n</text>
        </g>
        <g transform="matrix(1.99026,0,0,1.99026,113.576,80.2868)">
            <text x="175.184px" y="45.096px" style="font-family:'SpecialElite-Regular', 'Special Elite';font-size:24.632px;">n</text>
        </g>
    </g>
</svg>
