<?xml version="1.0" encoding="UTF-8" standalone="no"?>
<!DOCTYPE svg PUBLIC "-//W3C//DTD SVG 1.1//EN" "http://www.w3.org/Graphics/SVG/1.1/DTD/svg11.dtd">
<svg width="100%" height="100%" viewBox="0 0 348 348" version="1.1" xmlns="http://www.w3.org/2000/svg" xmlns:xlink="http://www.w3.org/1999/xlink" xml:space="preserve" xmlns:serif="http://www.serif.com/" style="fill-rule:evenodd;clip-rule:evenodd;">
    <path d="M5.079,5.776L341.992,5.776L341.992,343.446L5.08,343.446L5.079,5.776Z" style="fill:none;fill-rule:nonzero;stroke:black;stroke-width:2px;"/>
    <path d="M282.734,40.554C282.734,32.178 289.7,25.389 298.294,25.389C302.42,25.389 306.378,26.986 309.295,29.83C312.213,32.674 313.853,36.532 313.853,40.554C313.853,48.93 306.887,55.719 298.293,55.719C289.7,55.719 282.734,48.929 282.734,40.554Z" style="fill:none;fill-rule:nonzero;stroke:black;stroke-width:2px;"/>
    <g transform="matrix(0.700664,-0.0848953,0.0848953,0.700664,31.0449,98.9461)">
        <g transform="matrix(0.95128,0,0,0.95128,-778.444,-412.973)">
            <path d="M940.354,577.314L948.254,610.026L945.406,568.564L957.606,547.434L958.065,628.932L978.889,510.571L984.476,500.894L958.249,637.016L990.638,490.221L1000.83,472.564L1008.9,486.536L1000.83,488.603L1002.78,513.936L1011.41,498.603L1012.48,492.74L1017.94,502.196L980.342,595.783L977.785,592.089L982.285,577.589L976.066,589.089C974.785,594.589 973.285,605.089 973.285,605.089L977.96,601.711L966.087,631.266L1033.8,529.662L1054.5,565.524L1022.44,593.908L1057.11,570.04L1064.71,583.206L976.087,638.932L1066.75,586.728L1070.45,593.147L976.087,638.932L1078.73,607.493L1091.26,629.189L1062.32,640.022L1024.1,641.651L1038.56,630.042L1022.44,636.511L1018.41,632.788L1021.95,641.742L989.718,643.116L986.976,638.271L980.304,643.517L976.38,643.685L979.958,643.79L979.08,644.48L991.315,645.936L990.271,644.092L1101.75,647.366L1108.55,659.132L979.079,648.918L1110.44,662.417L1116.8,673.428L1100.75,673.428L1100.75,678.596L1112.75,683.27L1119.37,677.87L1124.81,687.304L1107.07,687.304L1057.53,674.511L1067.41,674.949L1051.48,665.282L1038.56,665.282L1045.02,671.278L976.087,653.477L1088.12,687.304L1034.5,687.304L977.785,658.524L1022.95,687.304L876.852,687.304L940.354,577.314ZM1150.54,691.848L1150.45,691.708L1009.49,447.564C1007.71,444.48 1004.39,442.564 1000.83,442.564C997.271,442.564 993.953,444.48 992.172,447.564L850.871,692.304C849.091,695.388 849.091,699.22 850.871,702.304C852.652,705.388 855.97,707.304 859.531,707.304L1142.15,707.304C1147.67,707.304 1152.15,702.818 1152.15,697.304C1152.15,695.356 1151.59,693.469 1150.54,691.848Z" style="fill:rgb(11,9,6);fill-rule:nonzero;"/>
            <g>
                <path d="M966.879,644.955L951.703,645.782L954.254,639.437L942.817,643.024L950.217,623.038L941.771,632.465L940.012,625.52C940.012,625.52 934.301,635.514 933.186,639.185C929.51,651.283 936.347,664.038 948.435,667.746C964.726,672.743 966.879,663.411 976.38,661.105L957.991,653.037L966.879,644.955Z" style="fill:rgb(11,9,6);fill-rule:nonzero;"/>
            </g>
            <g>
                <path d="M993.562,535.535L1001.3,530.201L1001.3,520.738L990.363,533.913L993.562,543.523L993.562,535.535Z" style="fill:rgb(11,9,6);fill-rule:nonzero;"/>
            </g>
            <g>
                <path d="M1011.11,604.863L1014.45,599.079L991.112,615.558L1005.47,615.558L1011.11,604.863Z" style="fill:rgb(11,9,6);fill-rule:nonzero;"/>
            </g>
            <g>
                <path d="M1030.66,676.725L1019.9,670.509L1006.16,670.131L1013.9,676.725L1030.66,676.725Z" style="fill:rgb(11,9,6);fill-rule:nonzero;"/>
            </g>
        </g>
        <g transform="matrix(1.99308,0,0,1.70947,-302.491,-123.006)">
            <path d="M240.404,35.471C240.086,34.834 239.501,34.442 238.869,34.442C238.236,34.442 237.652,34.834 237.333,35.471L134.771,240.596C134.45,241.237 134.448,242.028 134.765,242.672C135.082,243.315 135.67,243.711 136.306,243.711L341.431,243.711C342.067,243.711 342.655,243.315 342.972,242.672C343.289,242.028 343.287,241.237 342.967,240.596L240.404,35.471ZM238.869,36.514L341.431,241.639L136.306,241.639L238.869,36.514Z"/>
        </g>
        <g>
            <g transform="matrix(0.975208,0,0,0.975208,110.591,-113.25)">
                <path d="M64.649,81.494C56.42,81.494 49.738,88.176 49.738,96.405C49.738,104.635 56.42,111.316 64.649,111.316C72.879,111.316 79.56,104.635 79.56,96.405C79.56,88.176 72.879,81.494 64.649,81.494L64.649,81.494ZM64.649,85.127C70.874,85.127 75.928,90.18 75.928,96.405C75.928,102.63 70.874,107.684 64.649,107.684C58.424,107.684 53.371,102.63 53.371,96.405C53.371,90.18 58.424,85.127 64.649,85.127Z"/>
            </g>
            <g transform="matrix(1.41686,0,0,1.41686,84.5295,-90.2419)">
                <path d="M66.594,44.298L68.709,46.413L65.007,50.116L68.709,53.818L66.594,55.934L62.891,52.231L59.189,55.934L57.073,53.818L60.776,50.116L57.073,46.413L59.189,44.298L62.891,48L66.594,44.298Z"/>
            </g>
        </g>
        <g transform="matrix(1,0,0,1,-168.315,288.689)">
            <g transform="matrix(0.975208,0,0,0.975208,110.591,-113.25)">
                <path d="M64.649,81.494C56.42,81.494 49.738,88.176 49.738,96.405C49.738,104.635 56.42,111.316 64.649,111.316C72.879,111.316 79.56,104.635 79.56,96.405C79.56,88.176 72.879,81.494 64.649,81.494L64.649,81.494ZM64.649,85.127C70.874,85.127 75.928,90.18 75.928,96.405C75.928,102.63 70.874,107.684 64.649,107.684C58.424,107.684 53.371,102.63 53.371,96.405C53.371,90.18 58.424,85.127 64.649,85.127Z"/>
            </g>
            <g transform="matrix(1.41686,0,0,1.41686,84.5295,-90.2419)">
                <path d="M66.594,44.298L68.709,46.413L65.007,50.116L68.709,53.818L66.594,55.934L62.891,52.231L59.189,55.934L57.073,53.818L60.776,50.116L57.073,46.413L59.189,44.298L62.891,48L66.594,44.298Z"/>
            </g>
        </g>
        <g transform="matrix(1,0,0,1,166.234,288.689)">
            <g transform="matrix(0.975208,0,0,0.975208,110.591,-113.25)">
                <path d="M64.649,81.494C56.42,81.494 49.738,88.176 49.738,96.405C49.738,104.635 56.42,111.316 64.649,111.316C72.879,111.316 79.56,104.635 79.56,96.405C79.56,88.176 72.879,81.494 64.649,81.494ZM64.649,85.127C70.874,85.127 75.928,90.18 75.928,96.405C75.928,102.63 70.874,107.684 64.649,107.684C58.424,107.684 53.371,102.63 53.371,96.405C53.371,90.18 58.424,85.127 64.649,85.127Z"/>
            </g>
            <g transform="matrix(1.41686,0,0,1.41686,84.5295,-90.2419)">
                <path d="M66.594,44.298L68.709,46.413L65.007,50.116L68.709,53.818L66.594,55.934L62.891,52.231L59.189,55.934L57.073,53.818L60.776,50.116L57.073,46.413L59.189,44.298L62.891,48L66.594,44.298Z"/>
            </g>
        </g>
    </g>
</svg>
